<?xml version="1.0" encoding="UTF-8" ?>
<!DOCTYPE svg PUBLIC "-//W3C//DTD SVG 1.1//EN" "http://www.w3.org/Graphics/SVG/1.1/DTD/svg11.dtd">
<svg width="249pt" height="205pt" viewBox="0 0 249 205" version="1.1" xmlns="http://www.w3.org/2000/svg">
<path fill="#168ccc" d=" M 0.00 0.00 L 249.00 0.00 L 249.00 205.00 L 0.00 205.00 L 0.00 0.00 Z" />
<path fill="#ffffff" d=" M 115.66 16.63 C 117.34 14.58 119.82 13.51 122.14 12.37 C 121.86 18.53 121.54 24.70 121.26 30.86 C 126.63 28.52 131.99 26.14 137.37 23.80 C 136.58 27.77 136.21 31.86 134.71 35.64 C 131.63 43.60 128.62 51.58 125.57 59.55 C 124.13 63.51 121.58 66.89 119.32 70.39 C 116.74 74.76 112.06 77.10 108.29 80.27 C 102.91 84.84 96.29 87.47 90.28 91.05 C 90.32 98.79 90.28 106.53 90.31 114.28 C 91.90 113.99 93.75 114.17 94.91 112.83 C 101.76 106.87 110.87 102.90 120.09 104.24 C 130.46 105.44 138.85 112.68 144.99 120.66 C 145.01 114.78 145.00 108.90 145.00 103.03 C 143.72 102.99 142.44 102.96 141.16 102.92 C 140.85 97.29 141.05 91.64 141.00 86.00 C 151.66 86.12 162.34 85.70 172.99 86.32 C 173.01 92.55 172.99 98.77 173.00 105.00 C 184.68 105.04 196.37 104.89 208.05 105.11 C 221.15 105.64 233.92 115.29 236.32 128.47 C 238.65 140.98 231.69 154.82 219.88 159.91 C 215.95 162.17 211.39 162.21 207.00 162.00 C 206.99 168.66 207.01 175.33 207.00 182.00 C 194.33 182.00 181.67 182.00 169.00 182.00 C 168.99 175.67 169.00 169.33 169.00 163.00 C 159.11 162.97 149.22 163.07 139.34 162.94 C 139.32 162.22 139.30 160.77 139.29 160.04 C 133.55 162.72 127.43 164.85 121.03 164.95 C 116.30 165.38 111.72 163.74 107.00 163.93 C 106.95 172.62 107.08 181.31 106.98 190.00 C 76.99 190.00 47.00 190.00 17.00 190.00 C 16.98 179.35 17.05 168.70 16.95 158.05 C 18.63 156.17 20.33 154.31 22.07 152.49 C 18.63 144.70 14.97 136.75 14.35 128.14 C 13.80 121.44 14.19 114.72 14.06 108.01 C 14.22 96.12 17.23 84.27 22.83 73.78 C 27.53 67.31 32.25 60.65 38.65 55.71 C 43.37 52.02 47.97 48.08 53.25 45.19 C 67.61 38.36 82.51 32.79 97.48 27.47 C 103.80 24.39 110.96 22.16 115.66 16.63 Z" />
<path fill="#2cacd2" d=" M 111.38 27.40 C 112.78 26.07 113.90 24.23 115.95 23.86 C 115.06 30.10 112.99 36.09 111.97 42.28 L 111.63 42.42 C 111.42 42.51 110.98 42.68 110.77 42.77 C 110.41 46.88 108.29 50.48 106.42 54.05 C 102.09 61.78 95.72 68.59 87.66 72.47 C 74.49 78.96 59.37 80.25 46.44 87.35 C 46.05 87.92 45.27 89.07 44.88 89.64 C 44.58 89.54 43.97 89.35 43.67 89.25 C 43.48 89.85 43.12 91.04 42.94 91.63 C 34.34 94.54 27.76 101.57 24.37 109.87 C 22.94 98.54 26.93 87.42 31.30 77.17 C 33.88 73.18 36.00 68.82 39.47 65.49 C 50.83 53.64 66.31 46.88 81.60 41.68 C 92.18 38.60 103.23 35.21 111.38 27.40 Z" />
<path fill="#c9d62f" d=" M 125.17 37.22 C 125.97 36.04 126.80 34.88 127.71 33.78 C 127.05 40.25 123.62 46.08 120.87 51.88 C 117.23 60.24 111.55 67.73 104.42 73.43 C 97.05 78.91 87.93 81.16 79.02 82.56 C 67.41 83.60 56.03 86.36 44.88 89.64 C 45.27 89.07 46.05 87.92 46.44 87.35 C 59.37 80.25 74.49 78.96 87.66 72.47 C 95.72 68.59 102.09 61.78 106.42 54.05 C 108.29 50.48 110.41 46.88 110.77 42.77 C 110.98 42.68 111.42 42.51 111.63 42.42 C 112.18 42.66 113.27 43.14 113.81 43.38 C 117.85 41.81 121.01 38.57 125.17 37.22 Z" />
<path fill="#000001" d=" M 42.94 91.63 C 53.93 88.13 66.80 89.58 76.07 96.73 C 76.08 94.75 76.08 92.77 76.09 90.79 C 78.89 90.80 81.70 90.79 84.50 90.80 C 84.53 97.78 84.50 104.75 84.53 111.73 C 81.72 111.75 78.91 111.76 76.11 111.77 C 73.96 107.78 71.08 104.22 67.18 101.83 C 59.79 97.20 49.54 97.21 42.43 102.41 C 29.65 112.00 29.53 134.06 42.37 143.67 C 48.25 148.36 56.69 149.40 63.61 146.52 C 70.89 143.67 75.80 136.83 77.88 129.48 C 80.70 131.06 83.53 132.63 86.35 134.21 C 84.57 140.40 81.19 146.26 75.93 150.12 C 67.26 156.87 55.31 158.46 44.85 155.64 C 34.90 153.07 26.97 144.81 23.88 135.14 C 21.35 126.96 21.65 117.96 24.37 109.87 C 27.76 101.57 34.34 94.54 42.94 91.63 Z" />
<path fill="#000001" d=" M 146.93 90.80 C 152.59 90.80 158.24 90.78 163.89 90.81 C 163.90 109.90 163.88 128.98 163.90 148.07 C 166.21 148.07 168.52 148.07 170.83 148.09 C 170.83 150.72 170.83 153.36 170.83 156.00 C 162.87 156.00 154.90 156.00 146.93 156.00 C 146.93 153.35 146.93 150.71 146.92 148.07 C 149.61 148.08 152.30 148.07 155.00 148.05 C 154.97 131.61 155.00 115.17 154.98 98.72 C 152.29 98.72 149.61 98.72 146.93 98.72 C 146.92 96.08 146.93 93.44 146.93 90.80 Z" />
<path fill="#000001" d=" M 102.53 114.59 C 111.62 106.91 126.19 108.10 134.34 116.61 C 139.47 121.47 141.19 128.72 141.48 135.54 C 128.74 135.61 115.99 135.52 103.25 135.59 C 104.08 140.75 106.94 145.88 111.85 148.13 C 119.33 151.52 128.85 148.86 133.58 142.14 C 136.21 143.27 138.83 144.43 141.46 145.59 C 133.02 158.36 113.20 161.18 101.53 151.31 C 90.37 142.38 90.98 122.96 102.53 114.59 Z" />
<path fill="#000001" d=" M 191.84 117.73 C 195.28 113.99 199.70 110.87 204.86 110.23 C 211.87 109.14 219.43 111.53 224.13 116.93 C 229.83 123.11 231.01 132.28 229.26 140.24 C 227.05 150.55 216.49 158.26 205.99 157.16 C 200.60 156.86 195.72 154.05 191.87 150.41 C 191.86 156.41 191.85 162.42 191.86 168.42 C 194.79 168.42 197.72 168.42 200.65 168.41 C 200.68 171.06 200.67 173.70 200.66 176.35 C 191.99 176.33 183.33 176.34 174.66 176.34 C 174.66 173.70 174.66 171.06 174.66 168.43 C 177.42 168.42 180.19 168.41 182.95 168.42 C 182.97 151.80 182.95 135.18 182.96 118.55 C 180.41 118.54 177.86 118.54 175.32 118.55 C 175.30 115.90 175.31 113.26 175.33 110.62 C 180.84 110.63 186.35 110.61 191.86 110.63 C 191.86 112.99 191.86 115.36 191.84 117.73 Z" />
<path fill="#ffffff" d=" M 107.26 121.34 C 111.34 115.94 119.70 115.22 125.19 118.81 C 128.72 121.22 131.12 124.99 132.27 129.07 C 122.72 129.11 113.17 129.08 103.62 129.09 C 104.44 126.34 105.23 123.47 107.26 121.34 Z" />
<path fill="#ffffff" d=" M 203.20 118.22 C 210.21 116.35 218.12 120.90 220.02 127.89 C 221.65 133.99 220.72 141.46 215.69 145.77 C 209.52 151.26 198.62 149.91 194.27 142.79 C 188.60 134.23 192.75 120.58 203.20 118.22 Z" />
<path fill="#000001" d=" M 22.72 160.69 C 24.69 160.69 26.65 160.68 28.62 160.69 L 28.63 162.55 C 27.32 162.56 26.00 162.56 24.69 162.57 C 24.69 169.22 24.69 175.87 24.69 182.52 C 26.00 182.52 27.32 182.53 28.63 182.54 L 28.62 184.31 C 26.65 184.31 24.69 184.31 22.72 184.31 C 22.72 176.43 22.72 168.56 22.72 160.69 Z" />
<path fill="#000001" d=" M 32.69 161.06 C 33.27 161.06 34.44 161.06 35.03 161.06 C 35.01 167.37 35.07 173.69 35.03 180.00 C 34.44 180.00 33.27 180.00 32.69 180.00 C 32.69 173.68 32.69 167.37 32.69 161.06 Z" />
<path fill="#000001" d=" M 66.69 161.07 C 67.25 161.06 68.36 161.04 68.92 161.03 C 68.95 167.35 68.93 173.68 68.94 180.00 C 68.38 180.00 67.25 180.00 66.69 180.00 C 66.69 173.69 66.69 167.38 66.69 161.07 Z" />
<path fill="#000001" d=" M 94.55 162.55 C 94.56 162.08 94.57 161.15 94.58 160.68 C 96.54 160.68 98.50 160.68 100.46 160.69 C 100.47 168.56 100.47 176.44 100.46 184.31 C 98.50 184.31 96.54 184.31 94.59 184.31 L 94.53 182.55 C 95.85 182.54 97.17 182.53 98.50 182.52 C 98.50 175.87 98.50 169.22 98.50 162.57 C 97.18 162.56 95.86 162.55 94.55 162.55 Z" />
<path fill="#000001" d=" M 35.60 173.03 C 37.52 170.49 39.64 166.56 43.29 166.78 C 41.47 168.89 39.55 170.91 37.66 172.97 C 39.64 175.34 41.65 177.68 43.58 180.09 C 39.63 180.45 37.26 175.96 35.60 173.03 Z" />
<path fill="#000001" d=" M 45.68 169.55 C 47.37 166.38 52.25 165.59 54.72 168.26 C 55.96 169.80 55.86 171.87 56.16 173.72 C 52.99 173.73 49.81 173.71 46.64 173.74 C 47.04 175.64 47.77 178.01 49.97 178.44 C 52.24 179.05 53.77 176.52 55.94 176.34 C 55.88 180.18 51.16 181.03 48.29 179.84 C 44.49 178.16 43.78 172.88 45.68 169.55 Z" />
<path fill="#000001" d=" M 80.00 166.87 C 80.57 166.87 81.70 166.88 82.27 166.88 C 82.24 167.40 82.17 168.44 82.13 168.95 C 84.07 166.41 88.34 165.71 90.36 168.55 C 92.60 171.89 92.40 177.56 88.67 179.78 C 86.35 181.07 83.74 179.82 82.15 178.00 C 82.26 180.35 82.26 182.71 82.25 185.06 C 81.69 185.06 80.56 185.06 80.00 185.06 C 80.00 179.00 80.00 172.93 80.00 166.87 Z" />
<path fill="#ffffff" d=" M 46.73 172.09 C 47.50 170.41 48.69 167.83 50.99 168.50 C 52.97 168.51 53.62 170.58 54.11 172.10 C 51.65 172.13 49.19 172.13 46.73 172.09 Z" />
<path fill="#ffffff" d=" M 84.18 168.88 C 90.77 165.42 91.72 179.72 85.01 178.49 C 81.48 176.92 81.38 171.19 84.18 168.88 Z" />
<path fill="#000001" d=" M 59.84 171.36 C 60.81 171.35 61.77 171.35 62.74 171.34 C 62.73 172.31 62.73 173.28 62.73 174.25 C 61.77 174.24 60.81 174.24 59.85 174.24 C 59.85 173.27 59.85 172.31 59.84 171.36 Z" />
<path fill="#000001" d=" M 72.84 171.37 C 73.81 171.36 74.77 171.35 75.74 171.34 C 75.74 172.31 75.73 173.28 75.73 174.25 C 74.77 174.24 73.81 174.24 72.85 174.24 C 72.85 173.28 72.84 172.32 72.84 171.37 Z" />
</svg>
